<svg xmlns="http://www.w3.org/2000/svg" viewBox="0 0 1200 900" width="1200" height="900">
  <defs>
    <linearGradient id="bg" x1="0" y1="0" x2="1" y2="1">
      <stop offset="0" stop-color="#6366f1"/><stop offset="1" stop-color="#4338ca"/></linearGradient>
    <radialGradient id="hl" cx="0.8" cy="0.12" r="0.9">
      <stop offset="0" stop-color="#ffffff" stop-opacity="0.30"/><stop offset="1" stop-color="#ffffff" stop-opacity="0"/></radialGradient>
    <linearGradient id="bld" x1="0" y1="0" x2="0" y2="1">
      <stop offset="0" stop-color="#ffffff" stop-opacity="0.20"/><stop offset="1" stop-color="#ffffff" stop-opacity="0.04"/></linearGradient>
    <filter id="blur" x="-50%" y="-50%" width="200%" height="200%"><feGaussianBlur stdDeviation="55"/></filter>
  </defs>
  <rect width="1200" height="900" fill="url(#bg)"/>
  <rect width="1200" height="900" fill="url(#hl)"/>
  <circle cx="980" cy="180" r="240" fill="#ffffff" opacity="0.12" filter="url(#blur)"/>
  <circle cx="180" cy="760" r="200" fill="#000000" opacity="0.10" filter="url(#blur)"/>
  <g opacity="0.16" fill="#ffffff">
    <rect x="120" y="560" width="120" height="260" rx="10"/>
    <rect x="270" y="480" width="120" height="340" rx="10"/>
    <rect x="420" y="600" width="120" height="220" rx="10"/>
    <rect x="900" y="540" width="120" height="280" rx="10"/>
    <rect x="1050" y="470" width="110" height="350" rx="10"/>
  </g>
  <circle cx="600" cy="360" r="150" fill="#ffffff" opacity="0.14"/>
  <circle cx="600" cy="360" r="150" fill="none" stroke="#ffffff" stroke-opacity="0.25" stroke-width="3"/>
  <text x="600" y="362" font-family="Inter,Arial,sans-serif" font-size="150" font-weight="800"
        fill="#ffffff" text-anchor="middle" dominant-baseline="central">G</text>
  <text x="600" y="595" font-family="Inter,Arial,sans-serif" font-size="48" font-weight="800"
        fill="#ffffff" text-anchor="middle" opacity="0.97">Grand Business Mumbai</text>
  <text x="600" y="652" font-family="Inter,Arial,sans-serif" font-size="22" font-weight="600"
        fill="#ffffff" text-anchor="middle" opacity="0.82" letter-spacing="7">BUSINESS</text>
</svg>